<?xml version="1.0" encoding="UTF-8"?>
<svg id="Layer_1" data-name="Layer 1" xmlns="http://www.w3.org/2000/svg" viewBox="0 0 1080 1080">
  <defs>
    <style>
      .cls-1 {
        fill: #9ee36a;
      }

      .cls-2 {
        fill: #74c8ee;
      }

      .cls-3 {
        fill: #fefefd;
      }

      .cls-4 {
        fill: #fdfefd;
      }

      .cls-5 {
        fill: #fbfbfa;
      }

      .cls-6 {
        fill: #76c9ef;
      }

      .cls-7 {
        fill: #77c7ef;
      }

      .cls-8 {
        fill: #74c9ef;
      }

      .cls-9 {
        fill: #6d6c6d;
      }

      .cls-10 {
        fill: #fefefe;
      }

      .cls-11 {
        fill: #76c9ee;
      }

      .cls-12 {
        fill: #9de36a;
      }

      .cls-13 {
        fill: #6a6a6b;
      }

      .cls-14 {
        fill: #6c6d6c;
      }

      .cls-15 {
        fill: #7dcaee;
      }

      .cls-16 {
        fill: #76c9f0;
      }

      .cls-17 {
        fill: #6e6f6e;
      }
    </style>
  </defs>
  <path class="cls-16" d="M424.19,451.9c-26.36-30.53-63.37-32.19-94.35-7.28-3.12,2.51-5.52,4.78-7.76,7.96-3.4,0-6.23.55-9.91-.37,18.86-24.93,51.34-38.67,81.41-29.77,16.48,4.87,30.14,15.61,39.86,29.6-3.23.83-6.94,1.38-9.26-.13Z"/>
  <path class="cls-13" d="M503.01,463.97c.12,3.3-3.71,6.24-6.38,5.7-.19-3.95,3.92-6.9,6.38-5.7Z"/>
  <path class="cls-13" d="M333.18,463.97c.12,3.3-3.71,6.24-6.38,5.7-.19-3.95,3.92-6.9,6.38-5.7Z"/>
  <path class="cls-13" d="M310.06,490.48l-.24-15.86-6.23,11.8c-.46.86-1.14,1.1-1.85,1.1-.66,0-1.52-.17-1.94-.98l-6.2-11.94-.22,15.91c-1.26.29-2.54.45-4.31-.11l-.02-23.27c.69-1.13,3.99-1.18,4.85-.23l7.72,14.73,7.89-14.77c.95-.72,3.29-.57,4.79-.21l.04,23.83c-1.71.36-2.98.27-4.3,0Z"/>
  <path class="cls-13" d="M174,466.76c1.52-.62,2.85-.49,4.22-.15l-.05,16.06c-.02,5.47-4.46,8.57-9.61,8.44-5.29-.14-9.41-3.48-9.41-9.06v-15.48c1.65-.34,2.84-.27,4.22.04l-.06,14.77c-.01,3.33,1.88,5.62,4.83,5.94s5.83-1.31,5.84-4.63l.03-15.92Z"/>
  <path class="cls-13" d="M186.88,479.26v11.3c-1.57.3-2.69.31-4.33-.1l.28-18.81c1.02-1.18,3.72.2,4.5.92,2.27-1.28,5.05-2.04,7.74-1.32,2.47.66,4.92,2.82,4.96,6.04l.18,13.21c-1.44.36-2.69.38-4.2.01l-.31-13.13c-.06-2.33-3.03-3-4.78-2.79-2.32.28-4.04,2.07-4.04,4.67Z"/>
  <path class="cls-13" d="M502.81,471.77c.88-.64,2.67-.64,3.93-.25l.1,19.09c-2.16.75-3.54-.39-4.55-1.18-2.22,1.3-4.91,2.19-7.66,1.32-2.34-.74-4.88-2.8-4.92-5.99l-.16-13.23c1.47-.2,2.62-.15,4.06.14l.25,12.43c.05,2.67,2.77,3.76,4.97,3.4s3.91-2.09,3.93-4.77l.05-10.97Z"/>
  <path class="cls-13" d="M459.63,471.74c.87-.63,2.73-.59,3.96-.18l-.02,18.9c-1.83,1-3.93-.51-5.07-.42-2.88.88-5.26,1.67-8.04.31-2.21-1.08-3.97-3.77-3.98-6.86l-.04-11.96c1.43-.35,2.64-.35,4.06,0l.03,11.25c0,2.84,1.55,4.64,4.03,4.86,2.6.23,4.88-1.41,4.92-4.44l.16-11.46Z"/>
  <path class="cls-13" d="M558.5,481.76c.23,3.07,1.93,5.23,4.35,5.71s4.63-.86,5.48-3.56c1.52-.24,2.84-.27,4.3.1-1.14,5.42-5.57,7.52-10.41,6.98-4.68-.52-7.9-4.6-8.04-9.74-.13-4.78,2.57-9.02,6.9-9.99,4.78-1.07,9.93.59,11.29,6.03-.06.78-2.12.9-3.21.65-.96-.22-1.45-1.34-2.43-2.37-1.68-1.74-4.45-1.19-5.86-.24-2.01,1.35-2.58,3.53-2.37,6.42Z"/>
  <path class="cls-13" d="M374.8,483.9c.76,2.53,2.7,3.62,4.71,3.63,2.19,0,3.49-1.23,4.72-3.35.53-.84,3.2-.62,4.11,0-1.08,5.11-5.68,7.26-10.02,6.81-5-.52-8.06-4.43-8.26-9.67-.18-4.89,2.51-9.23,7.09-10.12s9.76.89,11.04,6.34c-5.28,1.78-4.54-3.3-8.68-3.16-1.85.06-3.54.91-4.41,2.99-.81,1.94-.99,4.2-.3,6.52Z"/>
  <path class="cls-13" d="M480.96,490.26c-.92.76-2.96.64-4.11.12l.12-18.62c1.19-1.07,3.78-.36,4.46,1.11,1.87-1.28,3.43-1.91,5.49-1.86.29,1.59.33,2.84-.13,4.24-3.4-.48-5.64,1.54-5.69,4.75l-.14,10.25Z"/>
  <path class="cls-13" d="M515.55,490.37c-1.29.46-2.65.51-4.29.05l.12-18.74c1.51-.98,3.9-.26,4.72,1.17,1.77-1.32,3.57-2.08,5.29-1.66,1.97,6.03-5.8,2.38-5.82,8.1l-.02,11.09Z"/>
  <rect class="cls-13" x="546.72" y="471.29" width="4.2" height="19.41" transform="translate(-1.02 1.17)"/>
  <rect class="cls-13" x="460.57" y="478.92" width="19.39" height="4.15" transform="translate(-11.3 950.68) rotate(-89.93)"/>
  <rect class="cls-13" x="204.57" y="471.32" width="4.2" height="19.38" transform="translate(-.95 .41)"/>
  <rect class="cls-13" x="362.54" y="471.32" width="4.19" height="19.38" transform="translate(-1.26 .96)"/>
  <circle class="cls-13" cx="548.84" cy="466.73" r="2.53"/>
  <circle class="cls-13" cx="470.29" cy="466.73" r="2.53"/>
  <circle class="cls-13" cx="364.7" cy="466.72" r="2.53"/>
  <circle class="cls-13" cx="206.7" cy="466.71" r="2.54"/>
  <path class="cls-13" d="M443.4,491.55c-2.37,1.48-5.02-.57-6.9-1.35-3.97.93-8.64,1.54-12.3-1.1-3.37-2.43-5.55-6.46-5.34-11.28.24-5.67,4.02-10.14,8.89-11.35,5.67-1.4,11.38.66,14,5.18,2.93,5.06,2.42,11.38-1.63,15.55.5,1.65,1.54,2.59,3.28,4.34ZM437.22,484.23c2.25-2.6,2.56-6.57,1.22-9.84-1.53-3.71-5.47-5.26-9.29-4.46-3.39.71-5.77,3.97-6,7.98-.18,3.04.94,5.85,2.75,7.44,2.43,2.13,5.35,2.36,8.62,1.58l-4.82-7.59c3.87-.73,5.59,1.53,7.52,4.9Z"/>
  <path class="cls-13" d="M532.9,498.78c-4.36-.07-8.13-1.71-9.11-6.27,4.39-1.59,7.23,5.21,12.52,1.5,1.47-1.03,2.38-3.22,1.79-5.75-3.04,2.47-6.85,3.14-10.35,1.29-2.94-1.55-4.83-5.03-4.79-8.9s1.73-7.29,4.82-8.73c3.49-1.63,7.55-1.16,10.13,1.61.12-1.08.48-1.77.92-1.98.64-.31,1.96-.38,3.42-.06v18.86c.02,5.36-3.99,8.53-9.35,8.44ZM531.88,474.6c-3.15.56-4.97,3.28-4.7,6.63s2.72,5.7,5.75,5.62c3.36-.1,5.45-2.59,5.29-6.55s-3.15-6.27-6.34-5.7Z"/>
  <path class="cls-13" d="M272.79,488.59c-2.59,2.84-6.34,3.21-9.67,1.8-3.07-1.3-5.07-4.71-5.36-8.48s1.08-7.93,4.36-9.77,7.92-1.76,10.87,1.43l.14-9.1c1.52-.21,2.7-.22,4.13.08l-.02,25.75c-.69.58-2.23.55-3.01.39-.73-.16-1.23-1.08-1.45-2.1ZM267.18,474.5c-3.41.19-5.4,3.24-5.23,6.82s2.46,6.39,5.8,6.21c3.11-.16,5.28-2.77,5.36-6.52.08-4.06-2.56-6.7-5.93-6.51Z"/>
  <path class="cls-13" d="M353.4,488.61c-2.71,2.95-6.36,2.92-9.57,1.62-3.34-1.35-5.04-4.94-5.18-8.86s1.41-7.66,4.71-9.35,7.19-1.5,10.4,1.27l.2-8.71,4.18.05v25.7c-1.05.57-2.47.51-3.28.33-.59-.13-1.03-.8-1.46-2.05ZM348.44,474.63c-3.5.02-5.79,2.99-5.56,6.74.21,3.46,2.25,6.13,5.54,6.16,2.89.03,5.19-2.15,5.56-5.79.42-4.16-2.07-7.13-5.54-7.11Z"/>
  <path class="cls-13" d="M226.82,489.39c-2.91,1.57-6.45,2.51-9.61.9-3.13-1.6-4.98-4.98-5.12-8.93s1.47-7.68,4.69-9.35,7.24-1.52,10.43,1.31l.21-8.85c1.29-.15,2.39-.16,4.22.15l-.17,25.41c-.01,1.6-4.01.59-4.64-.64ZM221.86,474.49c-3.58-.06-5.71,3.07-5.54,6.89.15,3.43,2.27,6.2,5.52,6.21,2.97.02,5.21-2.19,5.58-5.87.43-4.21-2.03-7.18-5.56-7.24Z"/>
  <path class="cls-13" d="M254.47,490.37c-.82.59-2.97.55-3.43.14s-.76-1.27-.9-2.04c-2.92,2.91-6.87,3.34-10.19,1.75-3.08-1.48-4.88-5.04-5.02-8.83-.14-4.12,1.5-7.93,4.98-9.56s7.54-.99,10.24,1.73c.15-1.08.49-1.79.91-2.02.68-.37,1.94-.42,3.41-.08v18.92ZM244.45,474.54c-3.44.11-5.45,3.23-5.32,6.82.12,3.34,2.23,6.05,5.34,6.14s5.48-2.32,5.82-5.98c.37-4.06-2.34-7.09-5.83-6.98Z"/>
  <path class="cls-13" d="M325.44,487.33c5.84,1.81,5.71-5.06,10.91-2.63-1.59,5.22-6.25,7-10.91,6.22s-7.64-4.59-7.87-9.55c-.16-3.45.97-6.43,3.43-8.37s5.59-2.46,8.95-1.76c4.75,1,7.13,5.86,6.58,10.8l-14.58.26c-.03,2.31,1.55,4.41,3.5,5.01ZM326.69,474.5c-2.46.3-4.46,1.9-4.8,4.61l10.49-.05c-.52-3.57-3.12-4.87-5.69-4.56Z"/>
  <path class="cls-13" d="M594.47,481.01c0,5.57-4.52,10.09-10.09,10.09s-10.09-4.52-10.09-10.09,4.52-10.09,10.09-10.09,10.09,4.52,10.09,10.09ZM584.07,474.53c-3.41.11-5.48,3.11-5.34,6.8.13,3.3,2.06,6.11,5.21,6.23s5.81-2.05,6.18-5.81c.44-4.45-2.27-7.35-6.06-7.23Z"/>
  <path class="cls-13" d="M410.24,481.02c0,5.57-4.51,10.08-10.08,10.08s-10.08-4.51-10.08-10.08,4.51-10.08,10.08-10.08,10.08,4.51,10.08,10.08ZM403.62,475.68c-1.78-1.32-4.32-1.54-6.13-.42-1.99,1.24-2.91,3.58-2.9,6.08.01,3.53,2.07,6.2,5.43,6.27,2.74.06,5.18-1.93,5.73-5.45.42-2.65-.35-5.17-2.13-6.48Z"/>
  <path class="cls-12" d="M386.44,540.83c-4.13-5.51-11.65-6.2-17.47-3.78s-8.96,8.19-8.97,15.06l-.05,42.9-19.2.09-.03-66.95c0-2.8-1.04-5.36.22-7.84l18.87.1.5,9.17c4.89-7.43,13.02-10.41,21.7-10.32,17.37.18,27.17,13.46,27.25,29.74l.23,45.99-19.55.02-.2-44.38c-.01-3.26-1.19-7.01-3.3-9.81Z"/>
  <path class="cls-12" d="M461.57,577.2c1.48,2.76.78,5.08.62,7.58l-.55,8.63c-6.44,2.8-13.04,3.49-19.93,2.1-7.7-1.55-14.71-7.71-14.83-16.19l-.6-43.23-8.86-.26.14-15.33,8.89-.26-.13-18.16,19.14-.04.17,18.2,16.25.05.03,15.53-16.28.08v38.07c0,2.99,1.8,4.76,4.74,5.31,3.61.68,7.26-.31,11.2-2.09Z"/>
  <path class="cls-12" d="M491.14,566.94l-.09,28.18h-19.21s-.02-74.75-.02-74.75l19.17-.05.14,10.06c4.56-8.57,13.85-14.04,23.08-9.96-.11,6.83.31,13.51-.72,20.33-5.09-1.87-10.75-2.99-15.51.03-4.87,3.09-6.8,9.15-6.38,14.79l-.45,11.36Z"/>
  <circle class="cls-1" cx="555.75" cy="557.63" r="38.97"/>
  <path class="cls-10" d="M569.26,573.63c-7.68,8.69-21.7,7.78-28.23-1.72-5.41-7.87-5.65-18.41-1.28-26.9,3.8-7.37,12.28-10.47,20.16-8.81s12.96,7.78,14.28,16.1c1.16,7.32.49,15.2-4.93,21.33Z"/>
  <path class="cls-11" d="M674.7,556.41c5.62,17.77-4.12,35.2-23.56,39.18-11.27,2.31-22.43.22-32.43-5.12-9.2-5.43-14.86-14.67-15.18-25.52l23.28-.12c.85,9.18,9.02,14.47,17.83,12.88,4.3-.5,7.47-3.21,8.17-7.02.82-4.44-1.51-8.59-5.94-9.87l-15.9-4.58c-5.11-1.47-10.28-2.94-14.68-5.68-7.59-4.74-11.29-12.4-11.15-21.09.29-17.72,14.29-26.61,31.42-27.04,20.68-.53,36.68,10.82,38.18,31.94l-23.91-.04c-.87-3.47-1.72-6.37-3.57-9.34-3.97-4.41-10.98-5.82-16.13-2.35-3.36,2.26-3.35,7.99-.39,10.36,2.56,2.05,5.57,2.65,8.57,3.58l22.71,7.03c5.85,1.81,10.73,6.68,12.67,12.8Z"/>
  <path class="cls-11" d="M892.54,504l22.78-.1-.04,55.22c0,11.81-5.01,23.46-14.64,30.16-14.41,10.04-34.67,9.8-48.41-.9-9.07-7.07-12.95-17.01-13.21-28.15l-.21-56.34h22.78s.14,56.87.14,56.87c.71,4.81,1.82,9.32,5.95,11.9,5.03,3.14,11.31,3.33,16.79.98,4.84-2.08,7.01-6.67,7.95-11.94l.11-57.7Z"/>
  <polygon class="cls-6" points="832.3 575.18 832.41 595.2 774.98 595.15 775.02 503.92 797.88 503.88 797.88 575.24 832.3 575.18"/>
  <polygon class="cls-11" points="739.04 579.74 706.2 579.77 700.83 595.15 677.34 595.14 708.98 503.89 736.28 503.91 767.87 594.94 743.99 595.23 739.04 579.74"/>
  <polygon class="cls-4" points="732.93 559.93 712.37 560.01 722.65 527.63 732.93 559.93"/>
  <path class="cls-11" d="M1012.17,550.34c-.08,15.57-7.81,29.1-20.57,37.2-7.13,4.53-15.14,7.25-23.71,7.32l-37.34.3-.04-91.25,33.43-.08c12.19-.03,23.38,3.64,32.98,11.12,10.32,8.68,15.33,21.34,15.25,35.4Z"/>
  <path class="cls-10" d="M987.15,560.73c-5.54,13.39-19.97,15.54-33.91,13.93v-50.82s13.58.11,13.58.11c7.22.06,14.56,4,18.41,10.31,4.84,7.94,5.13,17.7,1.91,26.47Z"/>
  <path class="cls-12" d="M181.56,561.86c4.54,11.49,14.89,16.98,26.51,16.62s20.22-7.16,23-18.51l21.11-.08c-3.45,20.95-20.9,35.41-42.01,36.33-17.37.75-33.43-6.17-43.18-20.83-14.26-21.45-9.09-54.41,14.12-68.65,15.78-9.68,35.83-9.24,51.54.12,10.71,6.38,17.15,16.64,19.15,28.96h-21.04c-2.46-9.22-8.82-15.45-17.87-17.62-12.31-2.96-24.92,2.17-30.46,13.97-4.29,9.12-4.68,20.05-.88,29.69Z"/>
  <path class="cls-2" d="M70.75,488.19c1.2-1.76,4.34-1.62,5.33.28.75-.01,1.37.59,1.34,1.32l-.78,22.01c-.17,4.93.58,10.41,4.4,13.89,5.76,5.26,14.71,6.37,21.72,3.14,3.64-1.68,6.04-5.11,7.65-8.61l8.64-18.78c.98-2.12,1.74-2.17,2.96-3.29,1.94.11,3.8.93,5.57,2.47.45,2.27.47,3.03-.52,5.12l-9.77,20.6c-4.39,9.26-13.94,13.96-24.66,13.12-2.92,34.46,3.59,65.55,29.03,89.79,25.93,22.65,65.13,32.82,99.01,32.68l10.79-.04c30.91-.12,60.98-7.4,89.45-19.32l5.25,6.22c-30.56,12.96-62.38,20.3-95.43,20.93-35.97.69-72-5.54-102.11-25.51-36.51-24.21-47.69-63.46-43.66-106.23-10.19-2.92-16.16-10.73-16.86-21.27-.62-9.3-.1-18.3.64-27.58.08-.98,1.76-.95,2.01-.93Z"/>
  <path class="cls-13" d="M127.6,500.62c-2.09.84-4.46-.45-5.57-2.47,2-1.84,1.72-5.49,2.62-7.46l6.96-15.13,20.15-39.86c2.89-5.72,5.09-11.52,5.15-17.9.1-10.29-6.36-19.01-16.03-21.19-1.76-1.14-1.06-4.47.91-5,12.67,2.6,20.78,13.91,20.23,26.9-.3,7.03-2.63,13.28-5.75,19.59l-18.48,37.32c-3.02,6.09-4.64,12.3-7.95,18.24-1.04,1.87-2.63,5.05-2.24,6.96Z"/>
  <path class="cls-14" d="M103.56,382.99c1.58,1.36.99,4.36-1.02,4.97-8.99-1.98-17.32,1.95-21.96,9.83-3.53,5.99-4.6,12.84-4.42,19.97l1.13,45.89-.36,15.56c-.07,3.12-1.45,6.07-.85,9.25-1.84.12-3.54.08-5.33-.28.79-3.36.21-7.02.38-10.29l.7-13.98c.71-14.07-.31-27.86-.64-41.99-.17-7.24.03-14.01,2.15-20.83,4.1-13.21,16.85-20.73,30.22-18.11Z"/>
  <path class="cls-15" d="M102.54,387.96c.14-1.72.43-3.36,1.02-4.97,3.54-1.57,8.32-2.39,11.31.83,1.79,1.93.42,8.18-2.45,8.7-3.81.69-7.5-2.28-9.89-4.57Z"/>
  <path class="cls-7" d="M141.79,391.61c-.04,1.71-.48,3.35-.91,5-3.21,1.39-8.59,2.5-11.42-.76-1.59-1.83.17-8.15,2.52-8.67,3.88-.85,7.53,1.99,9.81,4.43Z"/>
  <path class="cls-1" d="M309.24,569.06l19.69-.12c-2.57,13.78-12.56,23.49-26.01,26.5-9.95,2.22-20.55.51-29.15-5.08-20.82-13.56-21.64-46.43-4.64-62.07,7.47-6.87,17.23-9.21,27.31-9.03,15.15.27,27.68,9.64,31.95,24.3,1.78,6.12,1.83,12.52,1.25,18.98l-52.89.1c.76,8.98,6.57,16.05,15.34,17.1,7.77.93,14.5-2.53,17.14-10.67Z"/>
  <path class="cls-3" d="M310.05,549.9l-32.71.14c1.14-9.16,8.67-15.2,17.7-14.33,7.9-.14,14.62,5.4,15,14.19Z"/>
  <path class="cls-8" d="M518.54,679.38c2.28-.11,3.14,7.03,1.13,7.98-33.37,8.41-68.06,9.42-101.72,1.37-26.61-6.37-51.09-18.03-71.74-35.71l-10.56-10.1c-10.56-10.1-18.43-22.19-24.5-35.69l8.52.02c5.01,9.85,11.01,18.78,18.62,26.95,6.64-2.81,12.26-6.76,18.26-10.74,7.53-4.99,14.72-9.99,21.12-16.37l10.84.25c-13.13,13.82-28.41,23.72-44.74,32.8,45.22,44.61,115.39,55.35,174.77,39.25Z"/>
  <path class="cls-9" d="M519.67,687.37l-1.13-7.98c1.18-.32,2.26-1.92,4.34-1.4-.01-8.89,5.31-16.33,12.38-19.27,8.46-3.53,17.62-1.34,23.32,4.88,5.81,6.35,7.21,15.26,3.42,23.26-3.57,7.54-10.97,11.74-19.1,11.53-7.63-.2-14.77-4.41-18.08-11.84l-5.14.82Z"/>
  <circle class="cls-5" cx="543.55" cy="677.72" r="7.29"/>
  <circle class="cls-17" cx="543.58" cy="677.72" r="2.94"/>
</svg>